<svg data-v-fde0c5aa="" xmlns="http://www.w3.org/2000/svg" viewBox="0 0 300 300" class="iconLeft"><!----><defs data-v-fde0c5aa=""><!----></defs><rect data-v-fde0c5aa="" fill="#00acff" x="0" y="0" width="300px" height="300px" class="logo-background-square"></rect><defs data-v-fde0c5aa=""><!----></defs><g data-v-fde0c5aa="" id="7003663a-d44c-4163-a19c-8315262506e1" fill="#ffffff" transform="matrix(3.2365801334381104,0,0,3.2365801334381104,85.07213104406664,132.32827266511677)"><path d="M8.50 10.50L8.88 8.47L3.60 8.47L4.00 6.37L8.44 6.37L8.83 4.34L4.40 4.34L4.76 2.45L9.90 2.45L10.29 0.42L2.91 0.42L0.98 10.50ZM13.82 10.50C17.21 10.50 19.12 8.58 19.74 5.43C20.36 2.18 18.98 0.42 15.60 0.42L12.25 0.42L10.32 10.50ZM14.10 2.45L14.97 2.45C16.62 2.45 17.96 2.84 17.46 5.42C17.01 7.76 15.75 8.48 13.85 8.48L12.94 8.48ZM22.55 10.50L23.34 6.37L27.50 6.37L26.71 10.50L28.95 10.50L30.88 0.42L28.64 0.42L27.89 4.34L23.73 4.34L24.49 0.42L22.25 0.42L20.31 10.50ZM34.93 7.81L35.29 5.91L31.51 5.91L31.15 7.81ZM38.95 5.46C39.34 3.40 40.67 2.17 42.35 2.17C43.44 2.17 44.20 2.67 44.00 3.51L46.33 3.51C46.80 1.36 45.01 0.21 42.73 0.21C39.51 0.21 37.21 2.42 36.64 5.46C36.04 8.50 37.41 10.71 40.63 10.71C42.43 10.71 44.23 10.05 45.19 8.93L45.93 5.11L41.66 5.11L41.34 6.85L43.41 6.85L43.15 8.16C42.67 8.50 42.08 8.75 41.01 8.75C39.33 8.75 38.54 7.52 38.95 5.46ZM46.72 6.86C46.20 9.55 47.64 10.71 49.59 10.71C51.53 10.71 53.42 9.55 53.94 6.86C54.46 4.17 53.02 3.01 51.07 3.01C49.13 3.01 47.24 4.17 46.72 6.86ZM48.82 6.86C49.07 5.50 49.77 4.76 50.74 4.76C51.70 4.76 52.09 5.50 51.84 6.86C51.59 8.22 50.89 8.96 49.92 8.96C48.96 8.96 48.57 8.22 48.82 6.86Z"></path></g><defs data-v-fde0c5aa=""><!----></defs><g data-v-fde0c5aa="" id="18bdb3a5-a400-456c-89d2-0fe72195adda" stroke="none" fill="#010033" transform="matrix(0.5117315649986267,0,0,0.5117315649986267,32.08262809697539,124.39065132799391)"><path d="M84.228 4.966c-.296-1.263-1.122-2.275-2.33-2.851L79.258.858c-.155-.291-.52-.621-1.378-.621-.351 0-.756.056-1.204.165L50.715 6.727c-2.497.609-5.491 2.96-6.675 5.242L24.903 48.86c-.569 1.096-.642 2.097-.205 2.815.476.783 1.518 1.136 2.856.954l3.169-.426c1.15-.153 2.051.13 2.455.771.374.592.326 1.449-.134 2.413l-17.013 35.97c-.522 1.094-.583 1.143-.553 2.143h.022v-.543c0 .006-.029.012-.028.018l.589 3.419c.275 2.393 1.49 3.12 2.193 3.342.205.062.465.116.775.116.763 0 1.804-.321 2.933-1.606L65.73 48.434c1.145-1.302 1.639-2.887 1.355-4.351-.251-1.304-1.077-2.37-2.325-3.002l-2.696-1.366c-.189-.384-.669-.824-1.884-.824-.083 0-.181.013-.271.017L83.063 9.443c1.083-1.378 1.507-3.009 1.165-4.477zM64.401 44.602c.12.626-.144 1.366-.726 2.028l-43.77 49.808c-.405.46-.707.625-.836.667-.083-.108-.238-.415-.308-1.024 0 0-.606-3.586-.552-4.913L61.14 42.312l2.384 1.208c.484.245.787.619.877 1.082zM80.912 7.754L56.106 39.323l-2.517.288c-1.12.128-1.918-.099-2.168-.612-.236-.488.005-1.248.661-2.084L78.368 3.464l2.354 1.121c.453.216.737.555.844 1.005.152.654-.086 1.442-.654 2.164z"></path></g><!----></svg>