<svg data-v-423bf9ae="" xmlns="http://www.w3.org/2000/svg" viewBox="0 0 41.48291567793699 60" class="icon"><!----><!----><!----><!----><g data-v-423bf9ae="" id="0b1409ae-1b8f-4140-aafc-6b692ea0b001" transform="matrix(0.6023189425468445,0,0,0.6023189425468445,-9.318916320800781,-0.1427493840456009)" stroke="none" fill="white"><path d="M84.228 4.966c-.296-1.263-1.122-2.275-2.33-2.851L79.258.858c-.155-.291-.52-.621-1.378-.621-.351 0-.756.056-1.204.165L50.715 6.727c-2.497.609-5.491 2.96-6.675 5.242L24.903 48.86c-.569 1.096-.642 2.097-.205 2.815.476.783 1.518 1.136 2.856.954l3.169-.426c1.15-.153 2.051.13 2.455.771.374.592.326 1.449-.134 2.413l-17.013 35.97c-.522 1.094-.583 1.143-.553 2.143h.022v-.543c0 .006-.029.012-.028.018l.589 3.419c.275 2.393 1.49 3.12 2.193 3.342.205.062.465.116.775.116.763 0 1.804-.321 2.933-1.606L65.73 48.434c1.145-1.302 1.639-2.887 1.355-4.351-.251-1.304-1.077-2.37-2.325-3.002l-2.696-1.366c-.189-.384-.669-.824-1.884-.824-.083 0-.181.013-.271.017L83.063 9.443c1.083-1.378 1.507-3.009 1.165-4.477zM64.401 44.602c.12.626-.144 1.366-.726 2.028l-43.77 49.808c-.405.46-.707.625-.836.667-.083-.108-.238-.415-.308-1.024 0 0-.606-3.586-.552-4.913L61.14 42.312l2.384 1.208c.484.245.787.619.877 1.082zM80.912 7.754L56.106 39.323l-2.517.288c-1.12.128-1.918-.099-2.168-.612-.236-.488.005-1.248.661-2.084L78.368 3.464l2.354 1.121c.453.216.737.555.844 1.005.152.654-.086 1.442-.654 2.164z"></path></g><!----></svg>